<svg xmlns="http://www.w3.org/2000/svg" width="188" height="31" fill="none"><g fill="#fff" clip-path="url(#WixStudioLogo_svg__a)"><path d="M88.058 6.207H85.46c-.72 0-1.394.357-1.799.953l-3.474 5.126a.234.234 0 0 1-.386 0L76.327 7.16a2.17 2.17 0 0 0-1.799-.953H71.93l6.19 9.13-6.156 9.078h2.598c.72 0 1.394-.357 1.8-.954l3.44-5.074a.234.234 0 0 1 .385 0l3.44 5.074a2.17 2.17 0 0 0 1.799.954h2.598l-6.155-9.079zM66.585 8.07v16.345h1.242a1.86 1.86 0 0 0 1.863-1.863V6.208h-1.242a1.86 1.86 0 0 0-1.863 1.862M64.31 6.207h-1.106c-1.216 0-2.27.841-2.54 2.027L58.192 19.1 56.03 8.957c-.4-1.875-2.324-3.14-4.292-2.595-1.254.346-2.183 1.405-2.455 2.677l-2.14 10.047-2.468-10.851a2.606 2.606 0 0 0-2.541-2.028h-1.104l4.14 18.207h1.57a3.02 3.02 0 0 0 2.95-2.388l2.648-12.422a.34.34 0 0 1 .328-.266c.157 0 .295.112.328.266l2.65 12.423a3.02 3.02 0 0 0 2.95 2.387h1.575z"></path></g><path fill="#F6F6F6" d="m92.346 21.357 1.4-1.327A8.8 8.8 0 0 0 96.4 22.12q1.523.76 3.44.761 1.424 0 2.529-.442 1.106-.442 1.745-1.229.638-.81.638-1.891 0-1.376-1.154-2.137-1.155-.786-3.93-1.204-2.409-.369-3.858-.958-1.425-.615-2.064-1.524-.638-.908-.638-2.186 0-1.498.835-2.629.836-1.154 2.31-1.793 1.473-.639 3.39-.639 2.186 0 3.857.86a9.7 9.7 0 0 1 2.997 2.383l-1.376 1.302q-1.056-1.302-2.334-2.063-1.252-.762-3.145-.762-2.014 0-3.291.909-1.278.885-1.278 2.407 0 1.18 1.081 1.843t3.71 1.056q2.505.369 4.004 1.032 1.499.64 2.162 1.646.688 1.008.688 2.432 0 1.573-.885 2.776-.86 1.18-2.407 1.867-1.548.664-3.587.664-2.358 0-4.225-.86a10.6 10.6 0 0 1-3.268-2.383m23.626 2.85h-1.891V8.337h-5.847V6.64h13.585v1.695h-5.847zM137.861 6.64V17.28q0 3.464-1.867 5.404-1.866 1.917-5.159 1.917-3.267 0-5.159-1.917-1.866-1.94-1.867-5.404V6.64h1.892V17.28q0 2.727 1.351 4.176 1.352 1.425 3.783 1.425 2.457 0 3.808-1.425 1.351-1.449 1.351-4.176V6.64zm3.186 17.566V6.64h5.675q2.703 0 4.742 1.13 2.063 1.131 3.218 3.12 1.154 1.965 1.154 4.52 0 2.556-1.154 4.546-1.155 1.989-3.218 3.12-2.04 1.13-4.742 1.13zm1.892-1.72h3.783q2.187 0 3.783-.884a6.04 6.04 0 0 0 2.482-2.482q.884-1.596.884-3.71 0-2.112-.884-3.684a6.04 6.04 0 0 0-2.482-2.482q-1.596-.884-3.783-.884h-3.783zm17.472 1.72h-1.892V6.64h1.892zm11.818.393q-1.965 0-3.635-.688a9.1 9.1 0 0 1-2.899-1.916 9.1 9.1 0 0 1-1.917-2.924q-.663-1.695-.663-3.66t.663-3.636a8.8 8.8 0 0 1 1.917-2.899 8.9 8.9 0 0 1 2.899-1.94q1.67-.69 3.635-.689 1.966 0 3.612.688a8.6 8.6 0 0 1 2.899 1.941 8.3 8.3 0 0 1 1.916 2.899q.687 1.671.688 3.636t-.688 3.66a8.55 8.55 0 0 1-1.916 2.924 8.8 8.8 0 0 1-2.899 1.916q-1.646.687-3.612.688m0-1.72q2.113 0 3.71-.958a6.7 6.7 0 0 0 2.53-2.653q.909-1.695.909-3.857t-.909-3.833a6.7 6.7 0 0 0-2.53-2.653q-1.597-.958-3.71-.958-2.088 0-3.709.958a6.7 6.7 0 0 0-2.531 2.653q-.909 1.67-.909 3.833 0 2.162.909 3.857a6.7 6.7 0 0 0 2.531 2.653q1.621.958 3.709.958"></path><path fill="#F6F6F6" fill-rule="evenodd" d="M0 .414C0 .185.185 0 .414 0h29.41c.228 0 .414.185.414.414v29.41a.414.414 0 0 1-.414.414H.414A.414.414 0 0 1 0 29.823zm15.119 4.125c-5.845 0-10.583 4.738-10.583 10.583s4.738 10.583 10.583 10.583 10.583-4.738 10.583-10.583S20.964 4.54 15.12 4.54" clip-rule="evenodd"></path><defs><clipPath id="WixStudioLogo_svg__a"><path fill="#fff" d="M41.029 6.207h47.03v18.208h-47.03z"></path></clipPath></defs></svg>